# xmcd
# 
# Track frame offsets:
#     183
#     14640
#     28735
#     42978
#     54858
#     68038
#     81528
#     95485
#     107735
#     119728
#     131755
#     146075
#     159853
#     173225
#     184503
#     196553
# 
# Disc length: 2792
# 
# Revision: 2
# Processed by: cddbd v1.5.2PL0 Copyright (c) Steve Scherf et al.
# Submitted via: fre:ac v1.0.27
# 
DISCID=dc0ae610
DTITLE=Jimmie Lunceford - Rhythm is our Business
DYEAR=1990
DGENRE=Jazz
TTITLE0=Rythm is Our Business
TTITLE1=Runnin' Wild
TTITLE2=Four or Five Times
TTITLE3=Organ Grinder's Swing
TTITLE4=Muddy Waters
TTITLE5=Harlem Soul
TTITLE6=Slumming on Park Avenue
TTITLE7=He Ain't Got Rhythm
TTITLE8=For Dancers Only
TTITLE9=Pegeon Walk
TTITLE10=Annie Laurie
TTITLE11=Mergie
TTITLE12=Down by the Old Mill Stream
TTITLE13=The Lonesome Road
TTITLE14=Well All Eight Then
TTITLE15=Uptown Blues
EXTD=
EXTT0=
EXTT1=
EXTT2=
EXTT3=
EXTT4=
EXTT5=
EXTT6=
EXTT7=
EXTT8=
EXTT9=
EXTT10=
EXTT11=
EXTT12=
EXTT13=
EXTT14=
EXTT15=
PLAYORDER=
